# xmcd
#
# Track frame offsets: 
#        150
#        22820
#        40917
#        57310
#        83025
#        108657
#        130167
#        152662
#        171490
#        192670
#        210100
#        225400
#
# Disc length: 3290 seconds
#
# Revision: 1
# Processed by: cddbd v1.5.2PL0 Copyright (c) Steve Scherf et al.
# Submitted via: ExactAudioCopyFreeDBPlugin 1.0
#
DISCID=960cd80c
DTITLE=Various Artist - smooth r&b 2
DYEAR=2002
DGENRE=R&B
TTITLE0=George Benson - Give Me the Night
TTITLE1=Smokey Robinson - Being with You
TTITLE2=The Commodores - Three Times a Lady
TTITLE3=Peaches and Herb - Reunited
TTITLE4=Kool and the Gang
TTITLE5=Atlantic Starr - Always
TTITLE6=Brothers Johnson - Strawberry Letter 23
TTITLE7=Lionel Richie - Hello
TTITLE8=The Manhattans - Shining Star
TTITLE9=Billy Ocean - Suddenly
TTITLE10=The O'Jay's - Used ta be My Girl
TTITLE11=Bobby Caldwell - What You Won't do for Love
EXTD=
EXTT0=
EXTT1=
EXTT2=
EXTT3=
EXTT4=
EXTT5=
EXTT6=
EXTT7=
EXTT8=
EXTT9=
EXTT10=
EXTT11=
PLAYORDER=
